<?xml version="1.0" encoding="UTF-8"?>
<svg width="253.61" height="86.999" version="1.1" viewBox="0 0 253.61 86.999" xmlns="http://www.w3.org/2000/svg">
 <style>.text-fill {
    fill: #222222;
  }
  .cursor-fill {
    fill: #dc8a78
  }
  .grad-start {
    stop-color: #e78284;
  }
  .grad-end {
    stop-color: #8839ef;
  }

  @media (prefers-color-scheme: dark) {
    .text-fill {
      fill: #eeeeee;
    }
    .cursor-fill {
      fill: #f4dbd6
    }
    .grad-start {
      stop-color: #e07e94;
    }
    .grad-end {
      stop-color: #948bea;
    }
  }</style>
 <defs>
  <linearGradient id="b" x1="227.1" x2="146.7" y1="16.9" y2="86.8" gradientTransform="matrix(.88047 0 0 .88047 -145.77 1.7454)" gradientUnits="userSpaceOnUse">
   <stop class="grad-start" offset="0"/>
   <stop class="grad-end" offset="1"/>
  </linearGradient>
 </defs>
 <path d="m43.525 1.7454 44.022 52.827-61.631 30.815-15.408-68.234h68.234l-15.408 68.234-61.631-30.815z" fill="none" stroke="url(#b)" stroke-linecap="round" stroke-width="2.2011"/>
 <!-- Title -->
 <path class="text-fill" d="m114.44 52.569q-3.528 0-5.768-1.064-2.184-1.12-3.08-2.968h-0.28v3.36h-4.032v-11.48h4.032v2.576q0 1.4 0.392 2.632 0.448 1.176 1.4 2.072 1.008 0.896 2.576 1.4 1.624 0.504 3.92 0.504 4.872 0 7-2.072 2.184-2.072 2.184-5.544 0-2.968-1.68-4.648-1.624-1.68-5.152-2.632l-3.08-0.784q-5.208-1.344-8.064-4.032t-2.856-7.392q0-2.352 0.896-4.256 0.896-1.96 2.52-3.304t3.864-2.072q2.296-0.728 5.04-0.728 3.192 0 5.208 1.008 2.072 0.952 2.912 2.688h0.336v-3.024h4.032v10.92h-4.032v-2.576q0-1.4-0.448-2.52-0.392-1.12-1.4-1.904t-2.632-1.176q-1.624-0.448-3.976-0.448-3.92 0-5.88 1.792t-1.96 4.704q0 3.024 1.736 4.76 1.792 1.68 5.6 2.688l2.856 0.728q5.096 1.344 7.84 4.032t2.744 7.056q0 2.52-0.84 4.704-0.84 2.128-2.464 3.696t-4.032 2.464q-2.352 0.84-5.432 0.84zm32.032 0q-3.08 0-5.544-1.064-2.408-1.12-4.088-3.08t-2.576-4.76-0.896-6.216q0-3.36 0.952-6.104 1.008-2.8 2.688-4.816 1.736-2.016 4.088-3.08 2.352-1.12 5.152-1.12 2.856 0 5.096 1.008t3.752 2.856q1.568 1.792 2.408 4.312t0.84 5.488v1.288h-19.88v1.456q0 4.76 2.352 7.504 2.408 2.744 6.384 2.744 3.472 0 5.488-1.4 2.072-1.456 3.248-3.752l1.848 1.176q-0.56 1.456-1.568 2.856-0.952 1.344-2.352 2.408-1.4 1.008-3.248 1.624-1.848 0.672-4.144 0.672zm-8.008-17.864h15.064v-0.56q0-1.96-0.448-3.64-0.392-1.68-1.288-2.912t-2.296-1.904q-1.344-0.728-3.248-0.728t-3.36 0.672-2.464 1.904q-0.952 1.232-1.456 2.912-0.504 1.624-0.504 3.584zm25.424-9.128h-2.912v-2.576h11.984v2.576h-4.032l7.784 21.168h0.224l7.56-21.168h-4.032v-2.576h10.192v2.576h-2.912l-10.136 26.32h-3.528z" fill="#222" aria-label="Sev"/>
 <!-- Subtitle -->
 <path class="text-fill" d="m109.31 74.702h-1.1733l-0.93331-2.7466h-3.7599l-0.93331 2.7466h-1.1333l3.2532-9.3064h1.4266zm-2.3866-3.7332-1.1733-3.3732-0.39999-1.16h-0.0667l-0.39999 1.16-1.1733 3.3732zm4.8932 3.7332h-1.0666v-6.8798h1.0666v1.12h0.0533c0.16889-0.3911 0.40444-0.7022 0.70665-0.93331 0.3111-0.2311 0.72442-0.34666 1.24-0.34666 0.71109 0 1.2711 0.2311 1.68 0.69332 0.41777 0.45332 0.62665 1.0978 0.62665 1.9333v4.4132h-1.0666v-4.2266c0-0.61332-0.13333-1.0755-0.39999-1.3866-0.25777-0.3111-0.64443-0.46666-1.16-0.46666-0.28444 0-0.55555 0.04889-0.81332 0.14666-0.25777 0.08889-0.46665 0.2311-0.62665 0.42666-0.15999 0.19555-0.23999 0.43999-0.23999 0.73332zm12.24 0.16c-0.62221 0-1.1644-0.14666-1.6266-0.43999-0.46221-0.30222-0.82221-0.71998-1.08-1.2533-0.25777-0.54221-0.38665-1.1777-0.38665-1.9066s0.12888-1.36 0.38665-1.8933c0.25777-0.54221 0.61777-0.95998 1.08-1.2533 0.46221-0.30222 1.0044-0.45332 1.6266-0.45332 0.61332 0 1.1422 0.14666 1.5866 0.43999 0.44443 0.28444 0.78665 0.67998 1.0266 1.1866s0.35999 1.0844 0.35999 1.7333v0.50665h-4.9465v0.31999c0 0.59554 0.17777 1.0933 0.53332 1.4933 0.36443 0.3911 0.86664 0.58665 1.5066 0.58665 0.43554 0 0.81331-0.10222 1.1333-0.30666 0.32888-0.20444 0.58221-0.49776 0.75998-0.87998l0.75998 0.54665c-0.22221 0.46221-0.56887 0.83998-1.04 1.1333s-1.0311 0.43999-1.68 0.43999zm0-6.3065c-0.38221 0-0.72443 0.08889-1.0266 0.26666-0.29333 0.17777-0.52443 0.42666-0.69331 0.74665-0.16889 0.3111-0.25333 0.66665-0.25333 1.0666v0.09333h3.7999v-0.14666c0-0.40888-0.0756-0.76442-0.22666-1.0666-0.15111-0.30222-0.36443-0.53776-0.63998-0.70665s-0.59554-0.25333-0.95998-0.25333zm3.7199 6.1465 2.5466-3.4666-2.4399-3.4132h1.2533l1.7466 2.5599h0.04l1.8133-2.5599h1.1866l-2.4266 3.3332 2.4799 3.5466h-1.2533l-1.7866-2.6933h-0.04l-1.9333 2.6933zm10.466 0h-1.3333c-0.36443 0-0.64443-0.10666-0.83998-0.31999s-0.29332-0.48443-0.29332-0.81331v-4.8132h-1.1333v-0.93331h0.63999c0.23111 0 0.38666-0.04444 0.46665-0.13333 0.0889-0.09778 0.13333-0.26222 0.13333-0.49332v-1.28h0.95998v1.9066h1.5066v0.93331h-1.5066v5.0132h1.4zm4.3599 0.16c-0.62221 0-1.1644-0.14666-1.6266-0.43999-0.46221-0.30222-0.8222-0.71998-1.08-1.2533-0.25777-0.54221-0.38666-1.1777-0.38666-1.9066s0.12889-1.36 0.38666-1.8933c0.25777-0.54221 0.61776-0.95998 1.08-1.2533 0.46221-0.30222 1.0044-0.45332 1.6266-0.45332 0.61331 0 1.1422 0.14666 1.5866 0.43999 0.44443 0.28444 0.78665 0.67998 1.0266 1.1866 0.24 0.50665 0.36 1.0844 0.36 1.7333v0.50665h-4.9466v0.31999c0 0.59554 0.17777 1.0933 0.53332 1.4933 0.36444 0.3911 0.86665 0.58665 1.5066 0.58665 0.43555 0 0.81332-0.10222 1.1333-0.30666 0.32888-0.20444 0.58221-0.49776 0.75998-0.87998l0.75998 0.54665c-0.22222 0.46221-0.56888 0.83998-1.04 1.1333-0.47109 0.29333-1.0311 0.43999-1.68 0.43999zm0-6.3065c-0.38221 0-0.72443 0.08889-1.0266 0.26666-0.29333 0.17777-0.52443 0.42666-0.69332 0.74665-0.16889 0.3111-0.25333 0.66665-0.25333 1.0666v0.09333h3.7999v-0.14666c0-0.40888-0.0756-0.76442-0.22666-1.0666-0.15111-0.30222-0.36444-0.53776-0.63999-0.70665s-0.59554-0.25333-0.95997-0.25333zm5.7998 6.1465h-1.0666v-6.8798h1.0666v1.12h0.0533c0.16889-0.3911 0.40444-0.7022 0.70665-0.93331 0.3111-0.2311 0.72442-0.34666 1.24-0.34666 0.71109 0 1.2711 0.2311 1.68 0.69332 0.41777 0.45332 0.62666 1.0978 0.62666 1.9333v4.4132h-1.0666v-4.2266c0-0.61332-0.13333-1.0755-0.39999-1.3866-0.25777-0.3111-0.64443-0.46666-1.16-0.46666-0.28443 0-0.55554 0.04889-0.81331 0.14666-0.25777 0.08889-0.46666 0.2311-0.62665 0.42666s-0.23999 0.43999-0.23999 0.73332zm8.5731 0.16c-0.6311 0-1.1644-0.12-1.6-0.35999-0.43555-0.24888-0.80887-0.57776-1.12-0.98664l0.75999-0.61332c0.26666 0.32888 0.56443 0.58665 0.89331 0.77331s0.71109 0.27999 1.1466 0.27999c0.45333 0 0.80443-0.09777 1.0533-0.29333 0.25777-0.19555 0.38666-0.4711 0.38666-0.82665 0-0.26666-0.0889-0.49776-0.26666-0.69332-0.16889-0.19555-0.47999-0.32444-0.93331-0.38666l-0.54665-0.08c-0.41777-0.06222-0.79554-0.16444-1.1333-0.30666-0.33777-0.15111-0.60443-0.35999-0.79998-0.62665-0.18666-0.27555-0.27999-0.62665-0.27999-1.0533 0-0.68443 0.2311-1.1911 0.69331-1.52 0.4711-0.33777 1.0578-0.50665 1.76-0.50665 0.37333 0 0.70221 0.04444 0.98664 0.13333 0.29333 0.08889 0.55554 0.21777 0.78665 0.38666 0.23111 0.16 0.43999 0.35555 0.62665 0.58665l-0.70665 0.63998c-0.15111-0.21333-0.37332-0.40443-0.66665-0.57332-0.29333-0.17777-0.66221-0.26666-1.1066-0.26666-0.43555 0-0.76887 0.09777-0.99997 0.29333-0.23111 0.18666-0.34666 0.44443-0.34666 0.77331s0.11111 0.57332 0.33332 0.73332c0.23111 0.15111 0.55999 0.26222 0.98665 0.33332l0.53332 0.08c0.76442 0.11555 1.3066 0.33777 1.6266 0.66665 0.31999 0.31999 0.47999 0.7422 0.47999 1.2666 0 0.44443-0.10222 0.82665-0.30666 1.1466s-0.49777 0.56888-0.87998 0.74665c-0.38221 0.16888-0.83553 0.25333-1.36 0.25333zm4.9599-8.6531c-0.22222 0-0.38666-0.05333-0.49333-0.16-0.10666-0.11555-0.15999-0.26222-0.15999-0.43999v-0.17333c0-0.17777 0.0533-0.31999 0.15999-0.42666 0.10667-0.11555 0.27111-0.17333 0.49333-0.17333 0.2311 0 0.39554 0.05778 0.49332 0.17333 0.10666 0.10666 0.15999 0.24888 0.15999 0.42666v0.17333c0 0.17777-0.0533 0.32444-0.15999 0.43999-0.0978 0.10666-0.26222 0.16-0.49332 0.16zm-0.53332 8.4931v-6.8798h1.0666v6.8798zm3.3332 0v-9.8664h1.0666v4.1066h0.0533c0.17777-0.43554 0.43999-0.75554 0.78665-0.95998 0.34665-0.21333 0.75553-0.31999 1.2266-0.31999 0.57777 0 1.0755 0.14666 1.4933 0.43999s0.73776 0.71109 0.95997 1.2533c0.23111 0.53332 0.34666 1.1689 0.34666 1.9066 0 0.72887-0.11555 1.3644-0.34666 1.9066-0.22221 0.54221-0.5422 0.95998-0.95997 1.2533s-0.91553 0.43999-1.4933 0.43999c-0.4711 0-0.87553-0.10666-1.2133-0.31999-0.32888-0.21333-0.59554-0.53332-0.79998-0.95998h-0.0533v1.12zm2.8399-0.79998c0.60443 0 1.08-0.18666 1.4266-0.55999 0.34665-0.38221 0.51998-0.87998 0.51998-1.4933v-1.1733c0-0.61332-0.17333-1.1066-0.51998-1.48-0.34666-0.38221-0.8222-0.57332-1.4266-0.57332-0.31999 0-0.61776 0.05778-0.89331 0.17333-0.26666 0.11555-0.47999 0.2711-0.63999 0.46666-0.15999 0.19555-0.23999 0.42221-0.23999 0.67998v2.5599c0 0.29333 0.08 0.54665 0.23999 0.75998 0.16 0.20444 0.37333 0.36444 0.63999 0.47999 0.27555 0.10666 0.57332 0.16 0.89331 0.16zm6.9732 0.79998h-0.94664c-0.36444 0-0.64443-0.10222-0.83998-0.30666-0.19555-0.21333-0.29333-0.47999-0.29333-0.79998v-8.7598h1.0666v8.9331h1.0133zm4.1332 0.16c-0.62221 0-1.1644-0.14666-1.6266-0.43999-0.46221-0.30222-0.8222-0.71998-1.08-1.2533-0.25777-0.54221-0.38666-1.1777-0.38666-1.9066s0.12889-1.36 0.38666-1.8933c0.25777-0.54221 0.61776-0.95998 1.08-1.2533 0.46221-0.30222 1.0044-0.45332 1.6266-0.45332 0.61331 0 1.1422 0.14666 1.5866 0.43999 0.44443 0.28444 0.78665 0.67998 1.0266 1.1866 0.24 0.50665 0.36 1.0844 0.36 1.7333v0.50665h-4.9466v0.31999c0 0.59554 0.17777 1.0933 0.53332 1.4933 0.36444 0.3911 0.86665 0.58665 1.5066 0.58665 0.43555 0 0.81332-0.10222 1.1333-0.30666 0.32888-0.20444 0.58221-0.49776 0.75998-0.87998l0.75998 0.54665c-0.22222 0.46221-0.56888 0.83998-1.04 1.1333-0.47109 0.29333-1.0311 0.43999-1.68 0.43999zm0-6.3065c-0.38221 0-0.72443 0.08889-1.0266 0.26666-0.29333 0.17777-0.52443 0.42666-0.69332 0.74665-0.16889 0.3111-0.25333 0.66665-0.25333 1.0666v0.09333h3.7999v-0.14666c0-0.40888-0.0755-0.76442-0.22666-1.0666-0.15111-0.30222-0.36444-0.53776-0.63999-0.70665s-0.59554-0.25333-0.95997-0.25333zm10.733 6.1465h-1.3333c-0.36444 0-0.64443-0.10666-0.83998-0.31999s-0.29333-0.48443-0.29333-0.81331v-4.8132h-1.1333v-0.93331h0.63998c0.23111 0 0.38666-0.04444 0.46666-0.13333 0.0889-0.09778 0.13333-0.26222 0.13333-0.49332v-1.28h0.95997v1.9066h1.5066v0.93331h-1.5066v5.0132h1.4zm4.3599 0.16c-0.62221 0-1.1644-0.14666-1.6266-0.43999-0.46221-0.30222-0.82221-0.71998-1.08-1.2533-0.25777-0.54221-0.38665-1.1777-0.38665-1.9066s0.12888-1.36 0.38665-1.8933c0.25777-0.54221 0.61777-0.95998 1.08-1.2533 0.46221-0.30222 1.0044-0.45332 1.6266-0.45332 0.61332 0 1.1422 0.14666 1.5866 0.43999 0.44443 0.28444 0.78665 0.67998 1.0266 1.1866s0.35999 1.0844 0.35999 1.7333v0.50665h-4.9465v0.31999c0 0.59554 0.17777 1.0933 0.53332 1.4933 0.36443 0.3911 0.86664 0.58665 1.5066 0.58665 0.43554 0 0.81331-0.10222 1.1333-0.30666 0.32888-0.20444 0.58221-0.49776 0.75998-0.87998l0.75998 0.54665c-0.22221 0.46221-0.56887 0.83998-1.04 1.1333s-1.0311 0.43999-1.68 0.43999zm0-6.3065c-0.38221 0-0.72443 0.08889-1.0266 0.26666-0.29333 0.17777-0.52443 0.42666-0.69331 0.74665-0.16889 0.3111-0.25333 0.66665-0.25333 1.0666v0.09333h3.7999v-0.14666c0-0.40888-0.0755-0.76442-0.22666-1.0666-0.15111-0.30222-0.36443-0.53776-0.63998-0.70665s-0.59554-0.25333-0.95998-0.25333zm3.7199 6.1465 2.5466-3.4666-2.4399-3.4132h1.2533l1.7466 2.5599h0.04l1.8133-2.5599h1.1866l-2.4266 3.3332 2.4799 3.5466h-1.2533l-1.7866-2.6933h-0.04l-1.9333 2.6933zm10.466 0h-1.3333c-0.36444 0-0.64443-0.10666-0.83998-0.31999s-0.29333-0.48443-0.29333-0.81331v-4.8132h-1.1333v-0.93331h0.63998c0.23111 0 0.38666-0.04444 0.46666-0.13333 0.0889-0.09778 0.13333-0.26222 0.13333-0.49332v-1.28h0.95997v1.9066h1.5066v0.93331h-1.5066v5.0132h1.4zm7.5598 0.16c-0.62221 0-1.1644-0.14666-1.6266-0.43999-0.46221-0.30222-0.8222-0.71998-1.08-1.2533-0.25777-0.54221-0.38666-1.1777-0.38666-1.9066s0.12889-1.36 0.38666-1.8933c0.25777-0.54221 0.61776-0.95998 1.08-1.2533 0.46221-0.30222 1.0044-0.45332 1.6266-0.45332 0.61331 0 1.1422 0.14666 1.5866 0.43999 0.44443 0.28444 0.78665 0.67998 1.0266 1.1866 0.23999 0.50665 0.35999 1.0844 0.35999 1.7333v0.50665h-4.9466v0.31999c0 0.59554 0.17777 1.0933 0.53332 1.4933 0.36444 0.3911 0.86665 0.58665 1.5066 0.58665 0.43555 0 0.81332-0.10222 1.1333-0.30666 0.32888-0.20444 0.58221-0.49776 0.75998-0.87998l0.75998 0.54665c-0.22222 0.46221-0.56888 0.83998-1.04 1.1333-0.4711 0.29333-1.0311 0.43999-1.68 0.43999zm0-6.3065c-0.38221 0-0.72443 0.08889-1.0266 0.26666-0.29333 0.17777-0.52443 0.42666-0.69332 0.74665-0.16889 0.3111-0.25333 0.66665-0.25333 1.0666v0.09333h3.7999v-0.14666c0-0.40888-0.0755-0.76442-0.22666-1.0666-0.15111-0.30222-0.36444-0.53776-0.63999-0.70665s-0.59554-0.25333-0.95997-0.25333zm9.1331 6.1465v-1.12h-0.0533c-0.20444 0.42666-0.47554 0.74665-0.81331 0.95998-0.32888 0.21333-0.72887 0.31999-1.2 0.31999-0.56888 0-1.0666-0.14666-1.4933-0.43999-0.41777-0.29333-0.7422-0.71109-0.97331-1.2533-0.22221-0.54221-0.33332-1.1777-0.33332-1.9066 0-0.73776 0.11111-1.3733 0.33332-1.9066 0.23111-0.54221 0.55554-0.95998 0.97331-1.2533 0.42665-0.29333 0.92442-0.43999 1.4933-0.43999 0.4711 0 0.87998 0.10666 1.2266 0.31999 0.34666 0.20444 0.60888 0.52443 0.78665 0.95998h0.0533v-4.1066h1.0666v9.8664zm-1.7733-0.79998c0.32888 0 0.62665-0.05333 0.89331-0.16 0.26666-0.11555 0.47999-0.27555 0.63999-0.47999 0.15999-0.21333 0.23999-0.46666 0.23999-0.75998v-2.5599c0-0.25777-0.08-0.48443-0.23999-0.67998-0.16-0.19555-0.37333-0.3511-0.63999-0.46666s-0.56443-0.17333-0.89331-0.17333c-0.59554 0-1.0711 0.19111-1.4266 0.57332-0.34666 0.37332-0.51999 0.86664-0.51999 1.48v1.1733c0 0.61332 0.17333 1.1111 0.51999 1.4933 0.35555 0.37332 0.83109 0.55999 1.4266 0.55999zm5.6399-7.6931c-0.22221 0-0.38665-0.05333-0.49332-0.16-0.10667-0.11555-0.16-0.26222-0.16-0.43999v-0.17333c0-0.17777 0.0533-0.31999 0.16-0.42666 0.10667-0.11555 0.27111-0.17333 0.49332-0.17333 0.23111 0 0.39555 0.05778 0.49332 0.17333 0.10667 0.10666 0.16 0.24888 0.16 0.42666v0.17333c0 0.17777-0.0533 0.32444-0.16 0.43999-0.0978 0.10666-0.26221 0.16-0.49332 0.16zm-0.53332 8.4931v-6.8798h1.0666v6.8798zm6.1865 0h-1.3333c-0.36444 0-0.64443-0.10666-0.83998-0.31999s-0.29333-0.48443-0.29333-0.81331v-4.8132h-1.1333v-0.93331h0.63998c0.23111 0 0.38666-0.04444 0.46666-0.13333 0.0889-0.09778 0.13333-0.26222 0.13333-0.49332v-1.28h0.95997v1.9066h1.5066v0.93331h-1.5066v5.0132h1.4zm4.3732 0.16c-0.61332 0-1.1555-0.14666-1.6266-0.43999-0.46221-0.30222-0.82665-0.71998-1.0933-1.2533-0.25777-0.54221-0.38665-1.1777-0.38665-1.9066s0.12888-1.36 0.38665-1.8933c0.26666-0.54221 0.6311-0.95998 1.0933-1.2533 0.4711-0.30222 1.0133-0.45332 1.6266-0.45332 0.61331 0 1.1511 0.15111 1.6133 0.45332 0.4711 0.29333 0.83554 0.71109 1.0933 1.2533 0.26666 0.53332 0.39999 1.1644 0.39999 1.8933s-0.13333 1.3644-0.39999 1.9066c-0.25777 0.53332-0.62221 0.95109-1.0933 1.2533-0.46221 0.29333-0.99998 0.43999-1.6133 0.43999zm0-0.94664c0.57776 0 1.0489-0.17777 1.4133-0.53332 0.36444-0.35555 0.54666-0.89776 0.54666-1.6266v-0.98664c0-0.72887-0.18222-1.2711-0.54666-1.6266-0.36443-0.35555-0.83553-0.53332-1.4133-0.53332-0.56888 0-1.04 0.17777-1.4133 0.53332-0.36443 0.35555-0.54665 0.89776-0.54665 1.6266v0.98664c0 0.72887 0.18222 1.2711 0.54665 1.6266 0.37332 0.35555 0.84442 0.53332 1.4133 0.53332zm5.9332 0.78665h-1.0666v-6.8798h1.0666v1.2666h0.0667c0.08-0.22222 0.20444-0.42666 0.37333-0.61332 0.16888-0.19555 0.38665-0.3511 0.65331-0.46666 0.26666-0.12444 0.58665-0.18666 0.95998-0.18666h0.41332v1.0666h-0.62665c-0.38221 0-0.71109 0.05333-0.98664 0.16-0.27555 0.09777-0.48887 0.2311-0.63998 0.39999-0.14222 0.16888-0.21333 0.36444-0.21333 0.58665z" fill="#222" aria-label="An extensible text editor"/>
 <!-- Blinking slab cursor -->
 <rect class="cursor-fill" x="248" y="62" width="6" height="14">
  <animate attributeName="opacity" calcMode="discrete" dur="1.0s" repeatCount="indefinite" values="1;0"/>
 </rect>
</svg>
