<?xml version="1.0" encoding="UTF-8"?>
<svg width="32" height="32" version="1.1" viewBox="0 0 256 256" xmlns="http://www.w3.org/2000/svg">
 <path d="m20.14 199.12h215.72" fill="none" stroke="#fff" stroke-linecap="round" stroke-width="20"/>
 <path d="m49.601 172.77c-8.6702 0.70872-12.457-7.709-14.715-14.55-7.9043-20.402-16.13-40.689-23.829-61.165-4.8961-12.242 15.892-17.622 19.469-6.0567 7.4725 20.108 14.676 40.32 22.044 60.469-5.2898 1.392-3.4142-2.2212-1.9939-5.5162 6.8792-18.594 13.537-37.276 20.557-55.815 3.9839-9.3932 19.01-6.0169 19.877 3.7994 6.9173 19.177 13.835 38.354 20.752 57.532-5.4288 1.4507-2.4986-2.9564-1.4793-6.0244 6.7186-18.257 13.122-36.64 20.042-54.816 4.874-12.407 25.051-3.6175 17.406 8.4576-8.7441 22.227-17.167 44.594-26.115 66.733-4.7988 10.469-21.83 8.4941-24.361-2.6277-7.5617-20.03-15.123-40.06-22.685-60.089h9.9527c-7.8101 20.856-15.291 41.848-23.31 62.619-2.0369 4.4666-6.729 7.2463-11.611 7.0498zm147.02 0.34921c-15.986 0.74689-30.685-10.831-34.889-26.06-5.3558-18.579-3.521-42 12.144-55.213 14.895-12.302 41.787-9.9686 50.847 8.3382 1.7827 6.9471-2.0931 0.36661-0.68888-3.3174 0.10766-13.842-0.22089-27.703 0.17461-41.532 0.87328-11.407 20.458-11.278 21.466 0 0.42969 30.384 0.0642 60.805 0.18552 91.204-0.48954 7.2557 1.2665 14.938-1.5715 21.8-5.4783 8.5759-21.693 4.197-20.08-6.7442v-13.619c2.9519 4.5263 1.1829 9.4678-2.0516 13.401-5.8416 7.9249-15.873 11.885-25.536 11.742zm6.1113-16.588c11.857 0.73333 20.642-10.309 21.259-21.414 1.4666-11.75-0.2427-27.061-12.441-32.54-11.346-5.2655-26.433 1.2611-28.996 13.903-2.7353 12.326-2.7698 28.588 8.549 36.75 3.3982 2.3168 7.5489 3.3236 11.629 3.3012z" fill="#fff" stroke-linecap="round" stroke-width="43.652" aria-label="wd"/>
</svg>
