<?xml version="1.0" encoding="UTF-8"?>
<svg width="32" height="32" fill="#000000" version="1.1" viewBox="0 0 256 256" xmlns="http://www.w3.org/2000/svg">
 <path d="m19.805 199.63c-10.786 1.2469-13.995-11.504-8.6141-18.886 17.643-38.879 34.965-77.915 52.811-116.69 4.643-10.11 20.263-10.747 25.822-1.18 8.5654 17.117 15.936 34.853 24.019 52.22 10.58 23.492 21.367 46.897 31.816 70.443 5.9332 13.159-14.743 19.337-21.012 9.0225-6.3561-11.494-10.71-24.019-16.174-35.972l10.76 6.9739h-84.086c3.5866-2.3246 7.1732-4.6493 10.76-6.9739-5.2006 11.655-9.4924 23.755-15.392 35.069-2.1599 3.9309-6.2078 6.2292-10.71 5.9776zm57.186-114.37c-9.2986 22.117-18.597 44.235-27.896 66.352-0.83768-2.0568-7.7257-6.9934-2.9451-6.3762h64.316c-1.9299 1.2794-4.7023 8.9365-5.853 4.3176-9.0744-21.431-18.149-42.862-27.223-64.293zm119.35 114.77c-16.821 0.81913-35.52-10.651-36.392-28.721-1.2937-10.782 4.6244-22.13 15.206-25.67 16.611-6.1241 34.637-5.2459 52.071-5.3861v14.346c-12.766 0.346-26.255-1.33-38.195 3.9976-9.6368 6.2606-3.8375 22.45 6.8681 23.708 13.066 3.6916 27.269-6.4332 28.151-19.935 0.25457-10.297 0.39898-20.645-0.0872-30.934-0.14037-12.089-13.529-15.48-23.328-13.901-11.024-1.2021-20.946 9.6813-31.292 5.7815-8.4138-7.2894-0.28238-19.126 9.1377-19.886 17.637-5.7342 38.793-8.0331 55.321 2.04 13.027 8.5738 14.722 25.472 14.147 39.735-0.11568 14.86 0.23703 29.74-0.1868 44.588-0.18328 11.728-19.425 13.541-22.379 2.5654-1.2768-4.9066-0.55694-10.03-0.74721-15.044 3.2774 5.5417-6.7964 17.345-14.147 19.926-4.4231 2.0042-9.3151 2.7947-14.147 2.7896z" fill="#fff" stroke-width="33.209" aria-label="Aa"/>
</svg>
