<?xml version="1.0" encoding="UTF-8"?>
<svg width="32" height="32" fill="#000000" version="1.1" viewBox="0 0 256 256" xmlns="http://www.w3.org/2000/svg">
 <path d="m61.227 243.76c-13.635 0.94819-26.975-9.479-27.908-23.392-2.519-13.598 6.2521-28.549 20.319-30.895 12.527-3.0722 27.567 1.839 32.755 14.396 6.694 14.773-0.55027 35.956-17.641 39.131-2.4694 0.53844-5.0008 0.75859-7.5257 0.7589zm63.928-115.6c-10.056-4.7198-10.194-17.998-3.2172-25.449 6.1452-9.2178 12.29-18.436 18.436-27.653 2.3745 3.3459 4.749 6.6918 7.1235 10.038-13.717 0.61663-27.436 2.343-41.152 2.1148-13.654-0.54787-17.734-21.112-6.395-27.7 8.9079-4.9264 19.285-1.394 28.902-1.3634l18.645 1.3685c-2.2666 3.4538-4.5331 6.9076-6.7997 10.361-7.3411-11.773-15.725-22.961-22.251-35.193-6.5112-12.87 12.111-26.637 22.898-17.89 7.4842 6.5372 9.6796 16.786 14.201 25.329 1.8502 4.0705 3.7004 8.141 5.5507 12.211-5.018 0.81997-6.8796-0.37157-3.5623-4.8637 5.0386-10.089 8.9211-20.857 14.976-30.349 8.8622-11.708 29.783-1.0638 26.658 12.765-3.3044 9.3588-10.203 16.939-15.317 25.391-2.7279 4.0919-5.4558 8.1837-8.1837 12.276-2.2666-3.3459-4.5331-6.6918-6.7997-10.038 13.102-0.80713 26.186-2.2484 39.301-2.6106 11.82-0.25083 18.701 13.877 12.749 23.561-6.0531 9.7612-18.477 6.4526-28.061 6.1699-7.9965-0.51354-15.993-1.0271-23.989-1.5406 2.2666-3.3459 4.5331-6.6918 6.7997-10.038 7.4303 11.48 15.536 22.567 22.448 34.348 7.1465 13.457-14.014 28.04-24.234 17.181-6.8311-8.0579-9.7123-18.571-14.482-27.891-0.52026-2.7271-5.1948-8.1267-2.9384-9.0675 6.0224-1.4591 3.895 2.2721 1.8626 5.9428-5.0385 9.8995-8.6193 20.667-15.035 29.756-4.4483 5.4797-12.213 6.7692-18.133 2.8332z" fill="#fff" stroke-linecap="round" stroke-width="53.966" aria-label=".*"/>
</svg>
