<?xml version="1.0" encoding="UTF-8"?>
<svg width="32" height="32" version="1.1" viewBox="0 0 256 256" xmlns="http://www.w3.org/2000/svg">
 <path d="m48.136 175.91c-8.8241 0.72129-12.678-7.8457-14.977-14.808-8.0445-20.764-16.416-41.411-24.252-62.25-4.983-12.459 16.174-17.934 19.814-6.1642 7.6051 20.465 14.937 41.036 22.435 61.542-5.3836 1.4166-3.4747-2.2606-2.0293-5.6141 7.0012-18.924 13.777-37.937 20.922-56.805 4.0546-9.5598 19.348-6.1236 20.23 3.8668 7.04 19.517 14.08 39.035 21.12 58.552-5.5251 1.4765-2.5429-3.0089-1.5056-6.1313 6.8378-18.581 13.355-37.29 20.398-55.788 4.9605-12.627 25.495-3.6817 17.715 8.6076-8.8992 22.622-17.472 45.385-26.578 67.917-4.8839 10.655-22.217 8.6448-24.793-2.6743-7.6958-20.385-15.392-40.77-23.088-61.155h10.129c-7.9487 21.226-15.562 42.591-23.724 63.73-2.0731 4.5459-6.8483 7.3749-11.817 7.1749zm149.63 0.35541c-16.27 0.76013-31.229-11.023-35.508-26.523-5.4508-18.909-3.5835-42.745 12.36-56.193 15.16-12.521 42.528-10.146 51.749 8.4862 1.8143 7.0703-2.1302 0.37313-0.70111-3.3763 0.10957-14.087-0.22481-28.194 0.17771-42.268 0.88879-11.609 20.821-11.478 21.847 0 0.43731 30.923 0.0653 61.884 0.18881 92.822-0.49823 7.3845 1.289 15.203-1.5994 22.187-5.5755 8.7281-22.078 4.2714-20.436-6.8639v-13.861c3.0042 4.6066 1.2039 9.6358-2.088 13.639-5.9453 8.0655-16.155 12.096-25.99 11.951zm6.2197-16.882c12.068 0.74633 21.008-10.492 21.636-21.794 1.4927-11.958-0.24701-27.541-12.662-33.117-11.547-5.3589-26.902 1.2834-29.51 14.15-2.7838 12.545-2.8189 29.096 8.7006 37.402 3.4584 2.3579 7.6828 3.3826 11.836 3.3598z" fill="#fff" stroke-width="29.618" aria-label="wd"/>
 <path d="m15.641 200.27h224.72" fill="#fff" stroke="#fff" stroke-linecap="round" stroke-width="16"/>
</svg>
