<?xml version="1.0" encoding="UTF-8"?>
<svg width="47.615mm" height="36.513mm" version="1.1" viewBox="0 0 47.615 36.513" xmlns="http://www.w3.org/2000/svg">
 <path d="m40.334 3.0579c-3.0822-1.4285-6.3778-2.4667-9.8233-3.0579-0.42315 0.75785-0.9175 1.7772-1.2583 2.588-3.6626-0.54564-7.2916-0.54564-10.887 0-0.34078-0.81087-0.84636-1.8302-1.2733-2.588-3.4492 0.59116-6.7486 1.6332-9.8308 3.0655-6.2168 9.3062-7.9021 18.381-7.0594 27.328 4.1233 3.0503 8.1193 4.9032 12.048 6.1158 0.96998-1.3224 1.8351-2.7282 2.5803-4.2098-1.4194-0.53426-2.7788-1.1936-4.0633-1.959 0.34078-0.2501 0.67411-0.51157 0.99615-0.78061 7.8346 3.6301 16.347 3.6301 24.088 0 0.32583 0.26904 0.6591 0.53052 0.99615 0.78061-1.2883 0.76917-2.6515 1.4285-4.0708 1.9628 0.74525 1.4777 1.6066 2.8873 2.5803 4.2097 3.9323-1.2125 7.932-3.0654 12.055-6.1195 0.98871-10.371-1.689-19.363-7.0782-27.335zm-24.436 21.833c-2.3519 0-4.2806-2.175-4.2806-4.8236 0-2.6486 1.8875-4.8274 4.2806-4.8274 2.3931 0 4.3218 2.175 4.2806 4.8274 0.0037 2.6486-1.8875 4.8236-4.2806 4.8236zm15.819 0c-2.3519 0-4.2806-2.175-4.2806-4.8236 0-2.6486 1.8875-4.8274 4.2806-4.8274 2.3931 0 4.3218 2.175 4.2806 4.8274 0 2.6486-1.8875 4.8236-4.2806 4.8236z" fill="#fff" stroke-width=".64963"/>
</svg>
